<mxfile host="app.diagrams.net" modified="2024-06-09T08:30:44.883Z" agent="Mozilla/5.0 (X11; Ubuntu; Linux x86_64; rv:126.0) Gecko/20100101 Firefox/126.0" etag="6LzSLRXJFjKT3vvkyICg" version="24.2.0" type="github">
  <diagram name="Page-1" id="mxoyQ6zyuO6gFCDsFeKC">
    <mxGraphModel dx="1050" dy="517" grid="1" gridSize="10" guides="1" tooltips="1" connect="1" arrows="1" fold="1" page="1" pageScale="1" pageWidth="850" pageHeight="1100" math="0" shadow="0">
      <root>
        <mxCell id="0" />
        <mxCell id="1" parent="0" />
        <mxCell id="COq2eSAJH0ZMD_AaOMfg-1" value="" style="shape=image;verticalLabelPosition=bottom;labelBackgroundColor=#ffffff;verticalAlign=top;aspect=fixed;imageAspect=0;image=data:image/svg+xml,PHN2ZyB4bWxuczpjYz0iaHR0cDovL2NyZWF0aXZlY29tbW9ucy5vcmcvbnMjIiB4bWxuczpkYz0iaHR0cDovL3B1cmwub3JnL2RjL2VsZW1lbnRzLzEuMS8iIHhtbG5zOmlua3NjYXBlPSJodHRwOi8vd3d3Lmlua3NjYXBlLm9yZy9uYW1lc3BhY2VzL2lua3NjYXBlIiB4bWxuczpyZGY9Imh0dHA6Ly93d3cudzMub3JnLzE5OTkvMDIvMjItcmRmLXN5bnRheC1ucyMiIHhtbG5zOnNvZGlwb2RpPSJodHRwOi8vc29kaXBvZGkuc291cmNlZm9yZ2UubmV0L0RURC9zb2RpcG9kaS0wLmR0ZCIgeG1sbnM6c3ZnPSJodHRwOi8vd3d3LnczLm9yZy8yMDAwL3N2ZyIgeG1sbnM9Imh0dHA6Ly93d3cudzMub3JnLzIwMDAvc3ZnIiB4bWxuczp4bGluaz0iaHR0cDovL3d3dy53My5vcmcvMTk5OS94bGluayIgdmVyc2lvbj0iMS4xIiBpZD0ic3ZnMTA5MTQyIiBpbmtzY2FwZTp2ZXJzaW9uPSIwLjkyLjMgKDI0MDU1NDYsIDIwMTgtMDMtMTEpIiBzb2RpcG9kaTpkb2NuYW1lPSJhbmRyb2lkX3RhYmxldC5zdmciIHg9IjBweCIgeT0iMHB4IiB2aWV3Qm94PSIwIDAgNDMuNDYgMjguOCIgc3R5bGU9ImVuYWJsZS1iYWNrZ3JvdW5kOm5ldyAwIDAgNDMuNDYgMjguODsiIHhtbDpzcGFjZT0icHJlc2VydmUiPiYjeGE7PHNvZGlwb2RpOm5hbWVkdmlldyBib3JkZXJjb2xvcj0iIzY2NjY2NiIgYm9yZGVyb3BhY2l0eT0iMSIgZml0LW1hcmdpbi1ib3R0b209IjAiIGZpdC1tYXJnaW4tbGVmdD0iMCIgZml0LW1hcmdpbi1yaWdodD0iMCIgZml0LW1hcmdpbi10b3A9IjAiIGdyaWR0b2xlcmFuY2U9IjEwIiBndWlkZXRvbGVyYW5jZT0iMTAiIGlkPSJuYW1lZHZpZXcxMDkxNDQiIGlua3NjYXBlOmN1cnJlbnQtbGF5ZXI9InN2ZzEwOTE0MiIgaW5rc2NhcGU6Y3g9IjI4Ljk3NTkyIiBpbmtzY2FwZTpjeT0iMTkuMjAyMTI0IiBpbmtzY2FwZTpwYWdlb3BhY2l0eT0iMCIgaW5rc2NhcGU6cGFnZXNoYWRvdz0iMiIgaW5rc2NhcGU6d2luZG93LWhlaWdodD0iMTAxNyIgaW5rc2NhcGU6d2luZG93LW1heGltaXplZD0iMSIgaW5rc2NhcGU6d2luZG93LXdpZHRoPSIxOTIwIiBpbmtzY2FwZTp3aW5kb3cteD0iLTgiIGlua3NjYXBlOndpbmRvdy15PSItOCIgaW5rc2NhcGU6em9vbT0iMjIuNTgwNjY1IiBvYmplY3R0b2xlcmFuY2U9IjEwIiBwYWdlY29sb3I9IiNmZmZmZmYiIHNob3dncmlkPSJmYWxzZSI+JiN4YTsJPC9zb2RpcG9kaTpuYW1lZHZpZXc+JiN4YTs8ZyBpZD0iZzEwOTE0MCI+JiN4YTsJPHRpdGxlIGlkPSJ0aXRsZTEwOTA3MCI+UGFnZS0xPC90aXRsZT4mI3hhOwk8ZyBpZD0iZ3JvdXAxLTEiPiYjeGE7CQk8dGl0bGUgaWQ9InRpdGxlMTA5MDcyIj5BbmRyb2lkIHRhYmxldDwvdGl0bGU+JiN4YTsJCTxnIGlkPSJzaGFwZTItMiI+JiN4YTsJCQk8dGl0bGUgaWQ9InRpdGxlMTA5MDc0Ij5TaGVldC4yPC90aXRsZT4mI3hhOwkJCTxwYXRoIGlkPSJwYXRoMTA5MDc2IiBpbmtzY2FwZTpjb25uZWN0b3ItY3VydmF0dXJlPSIwIiBzdHlsZT0iZmlsbDojM0Y1NzY1OyIgZD0iTTEuNzYsMjguOEMwLjY5LDI4LjgsMCwyOC4xNSwwLDI3LjA3ICAgICBDMCwxLjc2LDAsMS43NiwwLDEuNzZDMCwwLjg4LDAuNjksMCwxLjc2LDBjMzkuOTgsMCwzOS45OCwwLDM5Ljk4LDBjMC44OCwwLDEuNzIsMC44OCwxLjcyLDEuNzZjMCwyNS4zMSwwLDI1LjMxLDAsMjUuMzEgICAgIGMwLDEuMDgtMC44NCwxLjczLTEuNzIsMS43M0gxLjc2eiIvPiYjeGE7CQk8L2c+JiN4YTsJCTxnIGlkPSJzaGFwZTMtNCIgdHJhbnNmb3JtPSJ0cmFuc2xhdGUoMy4wNjA4NCwtMy4wNjM0OCkiPiYjeGE7CQkJPHRpdGxlIGlkPSJ0aXRsZTEwOTA3OSI+U2hlZXQuMzwvdGl0bGU+JiN4YTsJCQk8cGF0aCBpZD0icGF0aDEwOTA4MSIgaW5rc2NhcGU6Y29ubmVjdG9yLWN1cnZhdHVyZT0iMCIgc3R5bGU9ImZpbGw6I0ZGRkZGRjsiIGQ9Ik0wLDYuMTNWMjguOGgzNi43M1Y2LjEzSDB6Ii8+JiN4YTsJCTwvZz4mI3hhOwkJPGcgaWQ9InNoYXBlNC02IiB0cmFuc2Zvcm09InRyYW5zbGF0ZSgyNi4zMjMyLC0xMS42NDEyKSI+JiN4YTsJCQk8dGl0bGUgaWQ9InRpdGxlMTA5MDg0Ij5TaGVldC40PC90aXRsZT4mI3hhOwkJCTxwYXRoIGlkPSJwYXRoMTA5MDg2IiBpbmtzY2FwZTpjb25uZWN0b3ItY3VydmF0dXJlPSIwIiBzdHlsZT0iZmlsbDojOTdDMDNFOyIgZD0iTTEuODQsMjQuMmMwLDMuNjgsMCwzLjY4LDAsMy42OCAgICAgYzAsMC4yMywwLDAuNDYtMC4yMywwLjY5YzAsMC4yMy0wLjIzLDAuMjMtMC42OSwwLjIzQzAuNDYsMjguOCwwLDI4LjM0LDAsMjcuODhjMC0zLjY4LDAtMy42OCwwLTMuNjggICAgIGMwLTAuMjMsMC4yMy0wLjQ2LDAuNDYtMC42OWMwLTAuMjMsMC4yMy0wLjIzLDAuNDYtMC4yM0MxLjYxLDIzLjI4LDEuODQsMjMuNTEsMS44NCwyNC4yeiIvPiYjeGE7CQk8L2c+JiN4YTsJCTxnIGlkPSJzaGFwZTUtOCIgdHJhbnNmb3JtPSJ0cmFuc2xhdGUoMTcuNzUyOSwtNi43Mzk2NykiPiYjeGE7CQkJPHRpdGxlIGlkPSJ0aXRsZTEwOTA4OSI+U2hlZXQuNTwvdGl0bGU+JiN4YTsJCQk8cGF0aCBpZD0icGF0aDEwOTA5MSIgaW5rc2NhcGU6Y29ubmVjdG9yLWN1cnZhdHVyZT0iMCIgc3R5bGU9ImZpbGw6Izk3QzAzRTsiIGQ9Ik03Ljk2LDE4LjM4YzAsNi4zNiwwLDYuMzYsMCw2LjM2ICAgICBjMCwwLjY5LDAsMS4xNS0xLjA3LDEuMTVjLTAuNDYsMC0wLjQ2LDAtMC40NiwwYzAsMi4wMywwLDIuMDMsMCwyLjAzYzAsMC40Ni0wLjQ2LDAuODgtMC44OCwwLjg4Yy0wLjQ2LDAtMC44OC0wLjQyLTAuODgtMC44OCAgICAgYzAtMi4wMywwLTIuMDMsMC0yLjAzYy0xLjU3LDAtMS41NywwLTEuNTcsMGMwLDIuMDMsMCwyLjAzLDAsMi4wM2MwLDAuNDYtMC4xOSwwLjg4LTAuODgsMC44OGMtMC40MiwwLTAuODgtMC40Mi0wLjg4LTAuODggICAgIGMwLTIuMDMsMC0yLjAzLDAtMi4wM2MtMC40MiwwLTAuNDIsMC0wLjQyLDBDMCwyNS44OSwwLDI1LjQzLDAsMjQuNzRjMC02LjM2LDAtNi4zNiwwLTYuMzZINy45NnoiLz4mI3hhOwkJPC9nPiYjeGE7CQk8ZyBpZD0ic2hhcGU2LTEwIiB0cmFuc2Zvcm09InRyYW5zbGF0ZSgxNy43NTI5LC0xNy43NjgyKSI+JiN4YTsJCQk8dGl0bGUgaWQ9InRpdGxlMTA5MDk0Ij5TaGVldC42PC90aXRsZT4mI3hhOwkJCTxwYXRoIGlkPSJwYXRoMTA5MDk2IiBpbmtzY2FwZTpjb25uZWN0b3ItY3VydmF0dXJlPSIwIiBzdHlsZT0iZmlsbDojRkZGRkZGOyIgZD0iTTcuOTYsMjguOEMwLDI4LjgsMCwyOC44LDAsMjguOCAgICAgYzAtMSwwLjY5LTIuMDMsMS45OS0yLjY1Yy0wLjY1LTAuOC0wLjY1LTAuOC0wLjY1LTAuOGMwLTAuMjMsMC0wLjIzLDAtMC4yM3MwLDAsMC4yMywwYzAuNjUsMS4wMywwLjY1LDEuMDMsMC42NSwxLjAzICAgICBjMC40Ni0wLjE5LDEuMTEtMC4xOSwxLjc2LTAuMTljMC40NiwwLDEuMTEsMCwxLjU3LDAuMTljMC44OC0xLjAzLDAuODgtMS4wMywwLjg4LTEuMDNzMCwwLDAuMjMsMGMwLDAsMCwwLDAsMC4yMyAgICAgYy0wLjg4LDAuOC0wLjg4LDAuOC0wLjg4LDAuOEM3LjA4LDI2Ljc3LDcuOTYsMjcuOCw3Ljk2LDI4Ljh6IE02LjIsMjcuMzhjMC0wLjE5LTAuMjMtMC40Mi0wLjQyLTAuNDIgICAgIGMtMC40NiwwLTAuNDYsMC4yMy0wLjQ2LDAuNDJzMCwwLjQyLDAuNDYsMC40MkM1Ljk3LDI3LjgsNi4yLDI3LjU3LDYuMiwyNy4zOHogTTIuNjgsMjcuMzhjMC0wLjE5LTAuMjMtMC40Mi0wLjQ2LTAuNDIgICAgIFMxLjgsMjcuMTksMS44LDI3LjM4czAuMTksMC40MiwwLjQyLDAuNDJTMi42OCwyNy41NywyLjY4LDI3LjM4eiIvPiYjeGE7CQk8L2c+JiN4YTsJCTxnIGlkPSJzaGFwZTctMTIiIHRyYW5zZm9ybT0idHJhbnNsYXRlKDE1LjMwNDIsLTExLjY0MTIpIj4mI3hhOwkJCTx0aXRsZSBpZD0idGl0bGUxMDkwOTkiPlNoZWV0Ljc8L3RpdGxlPiYjeGE7CQkJPHBhdGggaWQ9InBhdGgxMDkxMDEiIGlua3NjYXBlOmNvbm5lY3Rvci1jdXJ2YXR1cmU9IjAiIHN0eWxlPSJmaWxsOiM5N0MwM0U7IiBkPSJNMS44NCwyNC4yYzAsMy42OCwwLDMuNjgsMCwzLjY4ICAgICBjMCwwLjIzLDAsMC40Ni0wLjIzLDAuNjlDMS4zOCwyOC44LDEuMTUsMjguOCwwLjkyLDI4LjhDMC40NiwyOC44LDAsMjguMzQsMCwyNy44OGMwLTMuNjgsMC0zLjY4LDAtMy42OCAgICAgYzAtMC4yMywwLjIzLTAuNDYsMC4yMy0wLjY5YzAuMjMtMC4yMywwLjQ2LTAuMjMsMC42OS0wLjIzQzEuMzgsMjMuMjgsMS44NCwyMy41MSwxLjg0LDI0LjJ6Ii8+JiN4YTsJCTwvZz4mI3hhOwkJPGcgaWQ9InNoYXBlOC0xNCIgdHJhbnNmb3JtPSJ0cmFuc2xhdGUoMTUuMzA0MiwtNi4xMjY5NykiPiYjeGE7CQkJPHRpdGxlIGlkPSJ0aXRsZTEwOTEwNCI+U2hlZXQuODwvdGl0bGU+JiN4YTsJCQk8cGF0aCBpZD0icGF0aDEwOTEwNiIgaW5rc2NhcGU6Y29ubmVjdG9yLWN1cnZhdHVyZT0iMCIgc3R5bGU9ImZpbGw6I0ZGRkZGRjsiIGQ9Ik0xMS45OCwxNy41NGMtMC4yMywwLTAuNjUsMC4yMy0wLjg4LDAuMjMgICAgIGMwLTAuMjMsMC0wLjIzLDAtMC4yM2wwLDBjMC0xLjExLTAuNjUtMi4yMi0xLjczLTMuMWMwLjQyLTAuNDYsMC40Mi0wLjQ2LDAuNDItMC40NmMwLTAuMTksMC4yMy0wLjE5LDAtMC40MiAgICAgYzAtMC4yMywwLTAuNDYtMC4yMi0wLjQ2YzAtMC4yMy0wLjItMC4yMy0wLjQzLTAuMjNjLTAuMjMsMC0wLjQyLDAuMjMtMC40MiwwLjQ2Yy0wLjY1LDAuNjUtMC42NSwwLjY1LTAuNjUsMC42NSAgICAgYy0wLjQ2LTAuMTktMC44OC0wLjE5LTEuMzQtMC4xOWMtMC42NSwwLTEuMDcsMC0xLjQ5LDAuMTljLTAuNDYtMC42NS0wLjQ2LTAuNjUtMC40Ni0wLjY1Yy0wLjE5LTAuMjMtMC40Mi0wLjQ2LTAuNjUtMC40NiAgICAgYzAsMC0wLjE5LDAtMC40MiwwLjIzYzAsMC0wLjIzLDAuMjMtMC4yMywwLjQ2YzAsMC4yMywwLDAuMjMsMC4yMywwLjQyYzAuMjMsMC40NiwwLjIzLDAuNDYsMC4yMywwLjQ2ICAgICBjLTEuMTEsMC44OC0xLjc2LDEuOTktMS43NiwzLjFsMCwwYzAsMC4yMywwLDAuMjMsMCwwLjIzYy0wLjE5LDAtMC40Mi0wLjIzLTAuODQtMC4yM0MwLjQ2LDE3LjU0LDAsMTguMTksMCwxOS4wNyAgICAgYzAsMy41NiwwLDMuNTYsMCwzLjU2YzAsMC44OCwwLjQ2LDEuNTMsMS4zNCwxLjUzYzAuNDIsMCwwLjY1LTAuMjMsMC44NC0wLjQyYzAsMC42NSwwLDAuNjUsMCwwLjY1YzAsMC40MiwwLDEuNTMsMS41MywxLjUzICAgICBjMCwxLjU3LDAsMS41NywwLDEuNTdjMCwwLjY2LDAuNjUsMS4zMSwxLjMsMS4zMWMwLjg4LDAsMS41My0wLjY1LDEuNTMtMS4zMWMwLTEuNTcsMC0xLjU3LDAtMS41N2MwLjQyLDAsMC40MiwwLDAuNDIsMCAgICAgYzAsMS41NywwLDEuNTcsMCwxLjU3YzAsMC42NiwwLjY1LDEuMzEsMS4zLDEuMzFjMC44OCwwLDEuNTMtMC42NSwxLjUzLTEuMzFjMC0xLjU3LDAtMS41NywwLTEuNTdjMS4zMSwwLDEuMzEtMS4xMSwxLjMxLTEuNTMgICAgIGMwLTAuNjUsMC0wLjY1LDAtMC42NWMwLjIzLDAuMTksMC42NSwwLjQyLDAuODgsMC40MmMwLjg0LDAsMS40OS0wLjY1LDEuNDktMS41M2MwLTMuNTYsMC0zLjU2LDAtMy41NiAgICAgQzEzLjQ3LDE4LjE5LDEyLjgyLDE3LjU0LDExLjk4LDE3LjU0eiIvPiYjeGE7CQk8L2c+JiN4YTsJCTxnIGlkPSJzaGFwZTktMTYiIHRyYW5zZm9ybT0idHJhbnNsYXRlKDE1LjMwNDIsLTExLjY0MTIpIj4mI3hhOwkJCTx0aXRsZSBpZD0idGl0bGUxMDkxMDkiPlNoZWV0Ljk8L3RpdGxlPiYjeGE7CQkJPHBhdGggaWQ9InBhdGgxMDkxMTEiIGlua3NjYXBlOmNvbm5lY3Rvci1jdXJ2YXR1cmU9IjAiIHN0eWxlPSJmaWxsOiMzRjU3NjU7IiBkPSJNMS44NCwyNC4yYzAtMC42OS0wLjQ2LTAuOTItMC45Mi0wLjkyICAgICBjLTAuMjMsMC0wLjQ2LDAtMC42OSwwLjIzQzAuMjMsMjMuNzQsMCwyMy45NywwLDI0LjJjMCwzLjY4LDAsMy42OCwwLDMuNjhjMCwwLjQ2LDAuNDYsMC45MiwwLjkyLDAuOTJjMC4yMywwLDAuNDYsMCwwLjY5LTAuMjMgICAgIHMwLjIzLTAuNDYsMC4yMy0wLjY5VjI0LjJ6Ii8+JiN4YTsJCTwvZz4mI3hhOwkJPGcgaWQ9InNoYXBlMTAtMTgiIHRyYW5zZm9ybT0idHJhbnNsYXRlKDE3Ljc1MjksLTYuNzM5NjcpIj4mI3hhOwkJCTx0aXRsZSBpZD0idGl0bGUxMDkxMTQiPlNoZWV0LjEwPC90aXRsZT4mI3hhOwkJCTxwYXRoIGlkPSJwYXRoMTA5MTE2IiBpbmtzY2FwZTpjb25uZWN0b3ItY3VydmF0dXJlPSIwIiBzdHlsZT0iZmlsbDojM0Y1NzY1OyIgZD0iTTAsMTguMzhjMCw2LjM2LDAsNi4zNiwwLDYuMzYgICAgIGMwLDAuNjksMCwxLjE1LDAuOTIsMS4xNWMwLjQyLDAsMC40MiwwLDAuNDIsMGMwLDIuMDMsMCwyLjAzLDAsMi4wM2MwLDAuNDYsMC40NiwwLjg4LDAuODgsMC44OGMwLjY5LDAsMC44OC0wLjQyLDAuODgtMC44OCAgICAgYzAtMi4wMywwLTIuMDMsMC0yLjAzYzEuNTcsMCwxLjU3LDAsMS41NywwYzAsMi4wMywwLDIuMDMsMCwyLjAzYzAsMC40NiwwLjQyLDAuODgsMC44OCwwLjg4YzAuNDIsMCwwLjg4LTAuNDIsMC44OC0wLjg4ICAgICBjMC0yLjAzLDAtMi4wMywwLTIuMDNjMC40NiwwLDAuNDYsMCwwLjQ2LDBjMS4wNywwLDEuMDctMC40NiwxLjA3LTEuMTVjMC02LjM2LDAtNi4zNiwwLTYuMzZIMHoiLz4mI3hhOwkJPC9nPiYjeGE7CQk8ZyBpZD0ic2hhcGUxMS0yMCIgdHJhbnNmb3JtPSJ0cmFuc2xhdGUoMTcuNzUyOSwtMTcuNzY4MikiPiYjeGE7CQkJPHRpdGxlIGlkPSJ0aXRsZTEwOTExOSI+U2hlZXQuMTE8L3RpdGxlPiYjeGE7CQkJPHBhdGggaWQ9InBhdGgxMDkxMjEiIGlua3NjYXBlOmNvbm5lY3Rvci1jdXJ2YXR1cmU9IjAiIHN0eWxlPSJmaWxsOiMzRjU3NjU7IiBkPSJNNS43OCwyNi4xNWMwLjg4LTAuOCwwLjg4LTAuOCwwLjg4LTAuOCAgICAgYzAtMC4yMywwLTAuMjMsMC0wLjIzYy0wLjIzLDAtMC4yMywwLTAuMjMsMGMtMC44OCwxLjAzLTAuODgsMS4wMy0wLjg4LDEuMDNjLTAuNDYtMC4xOS0xLjExLTAuMTktMS41Ny0wLjE5ICAgICBjLTAuNjUsMC0xLjMsMC0xLjc2LDAuMTljLTAuNjUtMS4wMy0wLjY1LTEuMDMtMC42NS0xLjAzYy0wLjIzLDAtMC4yMywwLTAuMjMsMHMwLDAsMCwwLjIzYzAuNjUsMC44LDAuNjUsMC44LDAuNjUsMC44ICAgICBDMC42OSwyNi43NywwLDI3LjgsMCwyOC44YzcuOTYsMCw3Ljk2LDAsNy45NiwwQzcuOTYsMjcuOCw3LjA4LDI2Ljc3LDUuNzgsMjYuMTV6Ii8+JiN4YTsJCTwvZz4mI3hhOwkJPGcgaWQ9InNoYXBlMTItMjIiIHRyYW5zZm9ybT0idHJhbnNsYXRlKDI2LjMyMzIsLTExLjY0MTIpIj4mI3hhOwkJCTx0aXRsZSBpZD0idGl0bGUxMDkxMjQiPlNoZWV0LjEyPC90aXRsZT4mI3hhOwkJCTxwYXRoIGlkPSJwYXRoMTA5MTI2IiBpbmtzY2FwZTpjb25uZWN0b3ItY3VydmF0dXJlPSIwIiBzdHlsZT0iZmlsbDojM0Y1NzY1OyIgZD0iTTEuODQsMjQuMmMwLTAuNjktMC4yMy0wLjkyLTAuOTItMC45MiAgICAgYy0wLjIzLDAtMC40NiwwLTAuNDYsMC4yM0MwLjIzLDIzLjc0LDAsMjMuOTcsMCwyNC4yYzAsMy42OCwwLDMuNjgsMCwzLjY4YzAsMC40NiwwLjQ2LDAuOTIsMC45MiwwLjkyczAuNjksMCwwLjY5LTAuMjMgICAgIGMwLjIzLTAuMjMsMC4yMy0wLjQ2LDAuMjMtMC42OVYyNC4yeiIvPiYjeGE7CQk8L2c+JiN4YTsJCTxnIGlkPSJzaGFwZTEzLTI0IiB0cmFuc2Zvcm09InRyYW5zbGF0ZSgxOS41ODk0LC0xOC45OTM2KSI+JiN4YTsJCQk8dGl0bGUgaWQ9InRpdGxlMTA5MTI5Ij5TaGVldC4xMzwvdGl0bGU+JiN4YTsJCQk8cGF0aCBpZD0icGF0aDEwOTEzMSIgaW5rc2NhcGU6Y29ubmVjdG9yLWN1cnZhdHVyZT0iMCIgc3R5bGU9ImZpbGw6I0ZGRkZGRjsiIGQ9Ik0wLDI4LjQ5YzAtMC4xNSwwLjMxLTAuMzEsMC42MS0wLjMxICAgICBjMC4zNSwwLDAuNjEsMC4xNiwwLjYxLDAuMzFjMCwwLjE5LTAuMjYsMC4zMS0wLjYxLDAuMzFDMC4zMSwyOC44LDAsMjguNjgsMCwyOC40OXoiLz4mI3hhOwkJPC9nPiYjeGE7CQk8ZyBpZD0ic2hhcGUxNC0yNiIgdHJhbnNmb3JtPSJ0cmFuc2xhdGUoMjMuMjYyNCwtMTguOTkzNikiPiYjeGE7CQkJPHRpdGxlIGlkPSJ0aXRsZTEwOTEzNCI+U2hlZXQuMTQ8L3RpdGxlPiYjeGE7CQkJPHBhdGggaWQ9InBhdGgxMDkxMzYiIGlua3NjYXBlOmNvbm5lY3Rvci1jdXJ2YXR1cmU9IjAiIHN0eWxlPSJmaWxsOiNGRkZGRkY7IiBkPSJNMCwyOC40OWMwLTAuMTUsMC4xNS0wLjMxLDAuMzEtMC4zMSAgICAgYzAuMTksMCwwLjMsMC4xNiwwLjMsMC4zMWMwLDAuMTktMC4xMSwwLjMxLTAuMywwLjMxQzAuMTUsMjguOCwwLDI4LjY4LDAsMjguNDl6Ii8+JiN4YTsJCTwvZz4mI3hhOwk8L2c+JiN4YTs8L2c+JiN4YTs8L3N2Zz4=;" vertex="1" parent="1">
          <mxGeometry x="360" y="233.02" width="83" height="55.98" as="geometry" />
        </mxCell>
      </root>
    </mxGraphModel>
  </diagram>
</mxfile>
